<?xml version="1.0" encoding="UTF-8"?>
<svg width="85px" height="102px" viewBox="0 0 85 102" version="1.1" xmlns="http://www.w3.org/2000/svg" xmlns:xlink="http://www.w3.org/1999/xlink">
    <!-- Generator: Sketch 60 (88103) - https://sketch.com -->
    <title>icon-android</title>
    <desc>Created with Sketch.</desc>
    <g id="Page-1" stroke="none" stroke-width="1" fill="none" fill-rule="evenodd">
        <g id="icon-android" fill="#85C808" fill-rule="nonzero">
            <g id="Welcome">
                <g id="v1-|-Homepage-|-New-Marketing-Sections">
                    <g id="Technologies">
                        <g id="Android">
                            <path d="M70.241297,31.4528746 L70.241297,54.2258744 L70.187425,54.2258744 L70.187425,78.1121108 C70.187425,79.9377524 68.703051,81.4179354 66.872241,81.4179354 L66.872241,81.4179354 L59.787692,81.4179354 L59.787692,96.1164585 C59.787692,99.3660842 57.14549,102 53.8866636,102 C50.6278374,102 47.9856355,99.3660842 47.9856355,96.1164585 L47.9856355,96.1164585 L47.9856355,81.4179354 L37.0132042,81.4179354 L37.0132042,96.1164585 C37.0132042,99.3660842 34.3718311,102 31.1130049,102 C27.8541787,102 25.2128056,99.3660842 25.2128056,96.1164585 L25.2128056,96.1164585 L25.2128056,81.4179354 L18.1274279,81.4179354 C16.2966173,81.4179354 14.810586,79.9377524 14.810586,78.1121108 L14.810586,78.1121108 L14.810586,54.2258744 L14.7592006,54.2258744 L14.7592006,31.4528746 L70.241297,31.4528746 Z M79.098972,29.57029 C82.358627,29.57029 85,32.2050323 85,35.454658 L85,35.454658 L85,61.8954704 C85,65.1442696 82.358627,67.7790119 79.098972,67.7790119 C75.840146,67.7790119 73.198773,65.1442696 73.198773,61.8954704 L73.198773,61.8954704 L73.198773,35.454658 C73.198773,32.2050323 75.840146,29.57029 79.098972,29.57029 Z M5.9001993,29.57029 C9.1598543,29.57029 11.8012274,32.2050323 11.8012274,35.454658 L11.8012274,35.454658 L11.8012274,61.8954704 C11.8012274,65.1442696 9.1598543,67.7790119 5.9001993,67.7790119 C2.6413731,67.7790119 0,65.1442696 0,61.8954704 L0,61.8954704 L0,35.454658 C0,32.2050323 2.6413731,29.57029 5.9001993,29.57029 Z M24.6910784,0.178367959 C24.9620948,-0.0125434173 25.2629477,-0.0579985068 25.3615745,0.0800196742 L25.3615745,0.0800196742 L30.2092028,6.90158893 C33.5301887,5.62719351 37.5697408,4.84784534 42.5002486,4.86272155 C47.4017487,4.87759776 51.4247248,5.68173962 54.736594,6.97596999 L54.736594,6.97596999 L59.636436,0.0800196742 C59.735892,-0.0579985068 60.036745,-0.0125434173 60.307761,0.178367959 C60.581264,0.37258516 60.722988,0.639530504 60.624361,0.778375141 L60.624361,0.778375141 L55.874531,7.46109976 C69.450211,13.538032 70.011306,28.1952322 70.011306,28.1952322 L70.011306,28.1952322 L14.9883627,28.1952322 C14.9883627,28.1952322 15.3911576,13.4066255 29.0654642,7.38010706 L29.0654642,7.38010706 L24.3744783,0.778375141 C24.2758516,0.639530504 24.4175757,0.37258516 24.6910784,0.178367959 Z M54.5749787,12.9405042 C52.7458258,12.9405042 51.2631096,14.4190343 51.2631096,16.2430231 C51.2631096,18.0670118 52.7458258,19.5455419 54.5749787,19.5455419 C56.4024741,19.5455419 57.886848,18.0670118 57.886848,16.2430231 C57.886848,14.4190343 56.4024741,12.9405042 54.5749787,12.9405042 Z M30.4246897,12.9405042 C28.5955368,12.9405042 27.1128206,14.4190343 27.1128206,16.2430231 C27.1128206,18.0670118 28.5955368,19.5455419 30.4246897,19.5455419 C32.2530139,19.5455419 33.7365589,18.0670118 33.7365589,16.2430231 C33.7365589,14.4190343 32.2530139,12.9405042 30.4246897,12.9405042 Z" id="icon-android"></path>
                        </g>
                    </g>
                </g>
            </g>
        </g>
    </g>
</svg>