<?xml version="1.0" encoding="UTF-8"?>
<svg width="84px" height="95px" viewBox="0 0 84 95" version="1.1" xmlns="http://www.w3.org/2000/svg" xmlns:xlink="http://www.w3.org/1999/xlink">
    <!-- Generator: Sketch 60 (88103) - https://sketch.com -->
    <title>icon-nodejs</title>
    <desc>Created with Sketch.</desc>
    <defs>
        <linearGradient x1="84.4900942%" y1="17.4868311%" x2="7.9459622%" y2="89.7551419%" id="linearGradient-1">
            <stop stop-color="#41873F" offset="0%"></stop>
            <stop stop-color="#418B3D" offset="32.88%"></stop>
            <stop stop-color="#419637" offset="63.52%"></stop>
            <stop stop-color="#3FA92D" offset="93.19%"></stop>
            <stop stop-color="#3FAE2A" offset="100%"></stop>
        </linearGradient>
        <linearGradient x1="68.1884411%" y1="17.4868311%" x2="27.8226935%" y2="89.7551419%" id="linearGradient-2">
            <stop stop-color="#41873F" offset="0%"></stop>
            <stop stop-color="#418B3D" offset="32.88%"></stop>
            <stop stop-color="#419637" offset="63.52%"></stop>
            <stop stop-color="#3FA92D" offset="93.19%"></stop>
            <stop stop-color="#3FAE2A" offset="100%"></stop>
        </linearGradient>
        <path d="M43.94867,0.644550337 C42.5451197,-0.144946727 40.8784036,-0.144946727 39.4748532,0.644550337 L2.54393499,21.9609711 C1.14038465,22.7504682 0.350887585,24.2417404 0.350887585,25.8207345 L0.350887585,68.541298 C0.350887585,70.1202921 1.22810655,71.6115643 2.54393499,72.4010614 L39.4748532,93.7174825 C40.8784036,94.5069791 42.5451197,94.5069791 43.94867,93.7174825 L80.879588,72.4010614 C82.2831384,71.6115643 83.0726358,70.1202921 83.0726358,68.541298 L83.0726358,25.8207345 C83.0726358,24.2417404 82.195417,22.7504682 80.879588,21.9609711 L43.94867,0.644550337 L43.94867,0.644550337 Z" id="path-3"></path>
        <linearGradient x1="43.2765472%" y1="55.168777%" x2="159.245277%" y2="-18.3061379%" id="linearGradient-5">
            <stop stop-color="#41873F" offset="13.76%"></stop>
            <stop stop-color="#54A044" offset="40.32%"></stop>
            <stop stop-color="#66B848" offset="71.36%"></stop>
            <stop stop-color="#6CC04A" offset="90.81%"></stop>
        </linearGradient>
        <path d="M43.94867,0.644550337 C42.5451197,-0.144946727 40.8784036,-0.144946727 39.4748532,0.644550337 L2.54393499,21.9609711 C1.14038465,22.7504682 0.350887585,24.2417404 0.350887585,25.8207345 L0.350887585,68.541298 C0.350887585,70.1202921 1.22810655,71.6115643 2.54393499,72.4010614 L39.4748532,93.7174825 C40.8784036,94.5069791 42.5451197,94.5069791 43.94867,93.7174825 L80.879588,72.4010614 C82.2831384,71.6115643 83.0726358,70.1202921 83.0726358,68.541298 L83.0726358,25.8207345 C83.0726358,24.2417404 82.195417,22.7504682 80.879588,21.9609711 L43.94867,0.644550337 L43.94867,0.644550337 Z" id="path-6"></path>
        <linearGradient x1="-4.38880435%" y1="49.9972065%" x2="101.499239%" y2="49.9972065%" id="linearGradient-8">
            <stop stop-color="#6CC04A" offset="9.191646%"></stop>
            <stop stop-color="#66B848" offset="28.64%"></stop>
            <stop stop-color="#54A044" offset="59.68%"></stop>
            <stop stop-color="#41873F" offset="86.24%"></stop>
        </linearGradient>
        <linearGradient x1="-9713.77%" y1="36.21%" x2="27.93%" y2="36.21%" id="linearGradient-9">
            <stop stop-color="#6CC04A" offset="9.191646%"></stop>
            <stop stop-color="#66B848" offset="28.64%"></stop>
            <stop stop-color="#54A044" offset="59.68%"></stop>
            <stop stop-color="#41873F" offset="86.24%"></stop>
        </linearGradient>
        <linearGradient x1="-103.860714%" y1="50.2754209%" x2="100.796849%" y2="50.2754209%" id="linearGradient-10">
            <stop stop-color="#6CC04A" offset="9.191646%"></stop>
            <stop stop-color="#66B848" offset="28.64%"></stop>
            <stop stop-color="#54A044" offset="59.68%"></stop>
            <stop stop-color="#41873F" offset="86.24%"></stop>
        </linearGradient>
        <linearGradient x1="130.613025%" y1="-211.06936%" x2="4.39327731%" y2="201.605387%" id="linearGradient-11">
            <stop stop-color="#41873F" offset="0%"></stop>
            <stop stop-color="#418B3D" offset="32.88%"></stop>
            <stop stop-color="#419637" offset="63.52%"></stop>
            <stop stop-color="#3FA92D" offset="93.19%"></stop>
            <stop stop-color="#3FAE2A" offset="100%"></stop>
        </linearGradient>
    </defs>
    <g id="Page-1" stroke="none" stroke-width="1" fill="none" fill-rule="evenodd">
        <g id="icon-nodejs">
            <g id="Welcome">
                <g id="v1-|-Homepage-|-New-Marketing-Sections">
                    <g id="Technologies">
                        <g id="NodeJS">
                            <g id="icon-nodejs">
                                <g id="path-2-link" fill="url(#linearGradient-2)" fill-rule="nonzero">
                                    <path d="M43.94867,0.644550337 C42.5451197,-0.144946727 40.8784036,-0.144946727 39.4748532,0.644550337 L2.54393499,21.9609711 C1.14038465,22.7504682 0.350887585,24.2417404 0.350887585,25.8207345 L0.350887585,68.541298 C0.350887585,70.1202921 1.22810655,71.6115643 2.54393499,72.4010614 L39.4748532,93.7174825 C40.8784036,94.5069791 42.5451197,94.5069791 43.94867,93.7174825 L80.879588,72.4010614 C82.2831384,71.6115643 83.0726358,70.1202921 83.0726358,68.541298 L83.0726358,25.8207345 C83.0726358,24.2417404 82.195417,22.7504682 80.879588,21.9609711 L43.94867,0.644550337 L43.94867,0.644550337 Z" id="path-2"></path>
                                </g>
                                <g id="Clipped">
                                    <g id="Group-Clipped">
                                        <mask id="mask-4" fill="white">
                                            <use xlink:href="#path-3"></use>
                                        </mask>
                                        <g id="path-3"></g>
                                        <g id="Group" mask="url(#mask-4)">
                                            <path d="M39.3871314,0.644550337 L2.3684912,21.9609711 C0.964940859,22.7504682 0,24.2417404 0,25.8207345 L0,68.541298 C0,69.5939608 0.438609481,70.5589016 1.14038465,71.3483987 L42.7205634,0.118218963 C41.6679007,-0.0572248308 40.4397942,0.0304970678 39.3871314,0.644550337 L39.3871314,0.644550337 Z" id="Path"></path>
                                            <path d="M42.9837291,94.1560919 C43.3346167,94.0683697 43.6855043,93.8929261 44.0363919,93.7174825 L81.0550324,72.4010614 C82.4585828,71.6115643 83.3358016,70.1202921 83.3358016,68.541298 L83.3358016,25.8207345 C83.3358016,24.6803499 82.80947,23.5399653 82.0199726,22.7504682 L42.9837291,94.1560919 L42.9837291,94.1560919 Z" id="Path"></path>
                                            <path d="M80.9673102,21.9609711 L43.8609481,0.644550337 C43.5100605,0.469106546 43.071451,0.293662755 42.7205634,0.205940859 L1.14038465,71.4361205 C1.49127223,71.87473 1.92988172,72.2256176 2.3684912,72.4887833 L39.4748532,93.8052039 C40.527516,94.4192577 41.7556226,94.5947013 42.8960073,94.2438133 L81.9322512,22.8381901 C81.6690854,22.4873025 81.3181974,22.2241368 80.9673102,21.9609711 L80.9673102,21.9609711 Z" id="Path" fill="url(#linearGradient-5)" fill-rule="nonzero"></path>
                                        </g>
                                    </g>
                                </g>
                                <g id="Clipped">
                                    <g id="Group-Clipped">
                                        <mask id="mask-7" fill="white">
                                            <use xlink:href="#path-6"></use>
                                        </mask>
                                        <g id="path-6"></g>
                                        <g id="Group" mask="url(#mask-7)">
                                            <g transform="translate(0.000000, -1.000000)" id="Path">
                                                <g transform="translate(0.000000, 0.223248)">
                                                    <path d="M83.3358016,69.3180496 L83.3358016,26.5974863 C83.3358016,25.0184921 82.3708606,23.5272198 80.9673102,22.7377228 L43.8609481,1.42130204 C43.4223386,1.15813632 42.9837291,0.98269256 42.4573978,0.89497068 L83.0726358,70.2829906 C83.2480794,70.0198248 83.3358016,69.6689376 83.3358016,69.3180496 L83.3358016,69.3180496 Z"></path>
                                                    <path d="M2.3684912,22.7377228 C0.964940859,23.5272198 0,25.0184921 0,26.5974863 L0,69.3180496 C0,70.8970436 1.05266275,72.3883162 2.3684912,73.1778128 L39.4748532,94.494234 C40.3520723,95.020565 41.3170131,95.196009 42.3696758,95.020565 L2.63165688,22.6500009 L2.3684912,22.7377228 L2.3684912,22.7377228 Z"></path>
                                                    <path d="M81.0550324,73.1778128 C82.1076948,72.5637598 82.8971922,71.5110974 83.2480794,70.3707128 L42.5451197,0.89497068 C41.4924569,0.71952684 40.3520723,0.80724872 39.3871314,1.42130204 L2.54393499,22.6500009 L42.2819539,95.108287 C42.8082853,95.020565 43.4223386,94.845122 43.94867,94.581956 L81.0550324,73.1778128 L81.0550324,73.1778128 Z" fill="url(#linearGradient-8)"></path>
                                                    <polygon fill="url(#linearGradient-9)" points="84.4761862 72.4760376 84.2130204 72.0374282 84.2130204 72.651482"></polygon>
                                                    <path d="M81.0550324,73.1778128 L44.0363919,94.494234 C43.5100605,94.757399 42.9837291,94.932843 42.3696758,95.020565 L43.071451,96.336393 L84.1252982,72.5637598 L84.1252982,72.0374282 L83.0726358,70.2829906 C82.8971922,71.5110974 82.1076948,72.5637598 81.0550324,73.1778128 L81.0550324,73.1778128 Z" fill="url(#linearGradient-10)"></path>
                                                    <path d="M81.0550324,73.1778128 L44.0363919,94.494234 C43.5100605,94.757399 42.9837291,94.932843 42.3696758,95.020565 L43.071451,96.336393 L84.1252982,72.5637598 L84.1252982,72.0374282 L83.0726358,70.2829906 C82.8971922,71.5110974 82.1076948,72.5637598 81.0550324,73.1778128 L81.0550324,73.1778128 Z" fill="url(#linearGradient-11)"></path>
                                                </g>
                                            </g>
                                        </g>
                                    </g>
                                </g>
                            </g>
                        </g>
                    </g>
                </g>
            </g>
        </g>
    </g>
</svg>