<?xml version="1.0" encoding="UTF-8"?>
<svg width="93px" height="94px" viewBox="0 0 93 94" version="1.1" xmlns="http://www.w3.org/2000/svg" xmlns:xlink="http://www.w3.org/1999/xlink">
    <!-- Generator: sketchtool 60 (101010) - https://sketch.com -->
    <title>0327AD3B-E646-4C3A-B48C-1BBD12AB0ED5</title>
    <desc>Created with sketchtool.</desc>
    <g id="Page-1" stroke="none" stroke-width="1" fill="none" fill-rule="evenodd">
        <g id="homepage_spinx" transform="translate(-1174.000000, -5603.000000)" fill="#31373D" fill-rule="nonzero">
            <g id="6" transform="translate(-18.000000, 5463.000000)">
                <g id="icon-wordpress" transform="translate(1192.000000, 140.000000)">
                    <path d="M46.476757,0.140760497 C72.145175,0.140760497 92.953472,21.1413174 92.953472,47.0469012 C92.953472,72.952485 72.145175,93.9531827 46.476757,93.9531827 C20.8083387,93.9531827 4.18e-05,72.952485 4.18e-05,47.0469012 C4.18e-05,21.1413174 20.8083387,0.140760497 46.476757,0.140760497 Z M46.476757,2.95513175 C40.577601,2.95513175 34.8564976,4.12056289 29.4722577,6.41891918 C26.8840133,7.52370062 24.3876535,8.89134433 22.0521963,10.4835749 C19.7382112,12.0614521 17.5622622,13.8733443 15.5844436,15.8692964 C13.6069039,17.8652485 11.8114601,20.0614431 10.2481678,22.3968084 C8.6705141,24.7538443 7.3153911,27.2732695 6.2205846,29.8852874 C3.9432697,35.3194162 2.7886475,41.0933803 2.7886475,47.0469012 C2.7886475,53.0005629 3.9432697,58.774527 6.2205846,64.2086557 C7.3153911,66.8206737 8.6705141,69.3400988 10.2481678,71.6971347 C11.8114601,74.0325 13.6069039,76.2285539 15.5844436,78.224506 C17.5622622,80.2205988 19.7382112,82.0326318 22.0521963,83.6103683 C24.3876535,85.2025988 26.8840133,86.5702425 29.4722577,87.6748833 C34.8564976,89.9733803 40.577601,91.1388114 46.476757,91.1388114 C52.3759129,91.1388114 58.0970163,89.9733803 63.481256,87.6748833 C66.069501,86.5702425 68.56586,85.2025988 70.901318,83.6103683 C73.215303,82.0326318 75.391252,80.2205988 77.36907,78.224506 C79.34661,76.2285539 81.142054,74.0325 82.705346,71.6971347 C84.283,69.3400988 85.638123,66.8206737 86.732929,64.2086557 C89.010244,58.774527 90.164866,53.0005629 90.164866,47.0469012 C90.164866,41.0933803 89.010244,35.3194162 86.732929,29.8852874 C85.638123,27.2732695 84.283,24.7538443 82.705346,22.3968084 C81.142054,20.0614431 79.34661,17.8652485 77.36907,15.8692964 C75.391252,13.8733443 73.215303,12.0614521 70.901318,10.4835749 C68.56586,8.89134433 66.069501,7.52370062 63.481256,6.41891918 C58.0970163,4.12056289 52.3759129,2.95513175 46.476757,2.95513175 Z M47.1571489,50.4646599 L59.0611489,83.3805611 C59.1400664,83.5744713 59.2354367,83.7519174 59.3391729,83.9192317 C55.3136811,85.3499174 50.9870199,86.1354084 46.4767291,86.1354084 C42.6753018,86.1354084 39.0057756,85.5733784 35.5349375,84.5427557 L35.5349375,84.5427557 L47.1571489,50.4646599 Z M11.0997801,31.1379503 L29.5752688,82.2235731 C16.6544037,75.8882826 7.7462028,62.5167826 7.7462028,47.0454802 C7.7462028,41.3784623 8.9508805,35.9987916 11.0997801,31.1379503 L11.0997801,31.1379503 Z M80.464116,28.2937467 C83.486686,33.8607138 85.207395,40.249618 85.207395,47.0454802 C85.207395,61.4657557 77.463855,74.0557048 65.949284,80.8308814 L65.949284,80.8308814 L77.77841,46.3128994 C79.988519,40.7367856 80.724572,36.2778365 80.724572,32.3129503 C80.724572,30.874103 80.630456,29.5385431 80.464116,28.2937467 Z M46.4767291,7.95850719 C56.5597696,7.95850719 65.740417,11.8489533 72.631201,18.2209713 C72.464303,18.2102766 72.301588,18.1893096 72.12981,18.1893096 C68.325176,18.1893096 65.625805,21.5340491 65.625805,25.126594 C65.625805,28.3477826 67.466843,31.073079 69.4303,34.2944084 C70.903381,36.8972796 72.623254,40.2417377 72.623254,45.0741539 C72.623254,48.4188934 71.582546,52.3750551 69.80732,57.9590491 L69.80732,57.9590491 L65.811805,70.736576 L51.814957,28.7191389 C54.1465102,28.5957287 56.2473063,28.3477826 56.2473063,28.3477826 C58.3341594,28.0988515 58.0886226,25.0031838 56.0007936,25.126594 C56.0007936,25.126594 49.7272673,25.6234713 45.6770964,25.6234713 L45.4409412,25.6228589 C41.6131417,25.6033975 35.4767951,25.126594 35.4767951,25.126594 C33.38799,25.0031838 33.1432898,28.2233874 35.2311189,28.3477826 C35.2311189,28.3477826 37.2067066,28.5957287 39.2934202,28.7191389 L39.2934202,28.7191389 L45.3272658,45.4047018 L36.8500418,71.0577605 L22.7469495,28.7191389 C24.9998544,28.5999842 27.0341327,28.3647343 27.1717489,28.3486518 C29.2650364,28.0988515 29.0182448,25.0031838 26.9316706,25.126594 C26.9316706,25.126594 20.6591204,25.6234713 16.60881,25.6234713 C15.8823783,25.6234713 15.0255792,25.6051778 14.1162148,25.5760491 C21.0417171,14.965588 32.9451594,7.95850719 46.4767291,7.95850719 Z"></path>
                </g>
            </g>
        </g>
    </g>
</svg>