<?xml version="1.0" encoding="UTF-8"?>
<svg width="75px" height="92px" viewBox="0 0 75 92" version="1.1" xmlns="http://www.w3.org/2000/svg" xmlns:xlink="http://www.w3.org/1999/xlink">
    <!-- Generator: sketchtool 61 (101010) - https://sketch.com -->
    <title>33B80282-831A-4661-927B-77DE5B27D363</title>
    <desc>Created with sketchtool.</desc>
    <g id="Welcome" stroke="none" stroke-width="1" fill="none" fill-rule="evenodd">
        <g id="Technologies-Tiles" transform="translate(-783.000000, -453.000000)" fill="#000000">
            <g id="Apple" transform="translate(735.000000, 453.000000)">
                <path d="M102.537101,22.1228709 C115.468307,22.1228709 120.555279,31.3244049 120.555279,31.3244049 C120.555279,31.3244049 110.605768,36.4112967 110.605768,48.75477 C110.605768,62.6794146 123,67.4779413 123,67.4779413 C123,67.4779413 114.335871,91.8648856 102.633221,91.8648856 C97.2580397,91.8648856 93.079526,88.2424891 87.4159834,88.2424891 C81.6446833,88.2424891 75.9172116,92 72.1871082,92 C61.5006741,92 48,68.8668692 48,50.2718601 C48,31.9765511 59.4275883,22.3791953 70.1459115,22.3791953 C77.1138794,22.3791953 82.5211011,26.3975648 86.1435981,26.3975648 C89.2534534,26.3975648 95.0247535,22.1228709 102.537101,22.1228709 Z M103.83001,-7.46069873e-13 C103.83001,-7.46069873e-13 105.079725,7.49053806 99.0749255,14.7063132 C92.6629743,22.4111603 85.3747564,21.1503946 85.3747564,21.1503946 C85.3747564,21.1503946 84.006402,15.0907999 89.3815836,8.00605853 C95.4262826,0.0389927529 103.83001,-7.46069873e-13 103.83001,-7.46069873e-13 Z" id="icon-apple"></path>
            </g>
        </g>
    </g>
</svg>