<?xml version="1.0" encoding="UTF-8"?>
<svg width="88px" height="92px" viewBox="0 0 88 92" version="1.1" xmlns="http://www.w3.org/2000/svg" xmlns:xlink="http://www.w3.org/1999/xlink">
    <!-- Generator: sketchtool 61 (101010) - https://sketch.com -->
    <title>1A9377D3-879C-4493-9E7B-7A1DCCFBA947</title>
    <desc>Created with sketchtool.</desc>
    <g id="Welcome" stroke="none" stroke-width="1" fill="none" fill-rule="evenodd">
        <g id="Technologies-Tiles" transform="translate(-377.000000, -453.000000)">
            <g id="AngularJS" transform="translate(335.000000, 453.000000)">
                <g id="icon-angular" transform="translate(42.000000, 0.000000)">
                    <polygon id="Fill-1" fill="#B3B3B3" points="0 15.1889035 6.82399166 71.762025 43.5488422 92.0140297 80.2003694 71.762025 87.0976845 15.1889035 43.4387661 0.0002183328"></polygon>
                    <polygon id="Fill-2" fill="#A5120D" points="43.4425505 4.71718931 43.4425505 86.9919022 76.054557 68.9641629 82.2417447 18.2152508"></polygon>
                    <polygon id="Fill-3" fill="#DC1B16" points="43.4425505 4.71718931 43.4425505 86.9919022 10.8305441 68.9641629 4.64335644 18.2152508"></polygon>
                    <g id="Group-8" transform="translate(16.738848, 8.865585)">
                        <path d="M18.8405741,37.9131996 L26.7123813,19.2182717 L34.5841884,37.9131996 C22.1343063,37.9414009 25.6016132,37.9428565 18.8405741,37.9131996 L18.8405741,37.9131996 Z M26.7125632,0.0488337696 L26.7125632,0.0488337696 L26.7123813,0.0488337696 L26.7123813,0.0488337696 L26.7123813,0.0488337696 L0.017375652,59.326007 L9.82415725,59.326007 L15.4553241,45.9529411 L37.9696204,45.9529411 L43.6006053,59.326007 L53.4075688,59.326007 L26.7125632,0.0488337696 Z" id="Fill-4" fill="#FFFFFF"></path>
                        <path d="M26.7123995,0.048942936 L26.7123995,0.048942936 L26.7123995,0.048942936 L26.7123995,19.2181989 L34.5842066,37.9131268 C30.638751,37.9220421 28.292947,37.9284101 26.7123995,37.9318671 L26.7123995,45.9530502 L37.9696386,45.9530502 L43.6006235,59.3261162 L53.4074051,59.3261162 L26.7123995,0.048942936 Z" id="Fill-6" fill="#B3B2B2"></path>
                    </g>
                </g>
            </g>
        </g>
    </g>
</svg>