<?xml version="1.0" encoding="UTF-8"?>
<svg width="77px" height="103px" viewBox="0 0 77 103" version="1.1" xmlns="http://www.w3.org/2000/svg" xmlns:xlink="http://www.w3.org/1999/xlink">
    <!-- Generator: sketchtool 61 (101010) - https://sketch.com -->
    <title>EB84E1CE-32BD-4868-9B4D-40FF71B31F4E</title>
    <desc>Created with sketchtool.</desc>
    <g id="Welcome" stroke="none" stroke-width="1" fill="none" fill-rule="evenodd">
        <g id="Technologies-Tiles" transform="translate(-581.000000, -672.000000)">
            <g id="Java" transform="translate(535.000000, 672.000000)">
                <g id="icon-java" transform="translate(47.000000, 0.000000)">
                    <path d="M47.7657923,0.04071375 C50.0917973,2.68896375 50.8595423,6.47571375 50.1910448,9.89121375 C49.4730473,13.7274638 47.3447948,17.1182137 44.8450448,20.0387137 C42.8405423,22.3899637 40.5385448,24.4689637 38.1380423,26.3994637 C35.3410448,28.6517138 32.5937948,31.0772137 30.8365448,34.2452138 C29.3515448,36.8192138 29.0050448,39.9872138 30.0197948,42.7839638 C31.6780448,47.5854638 35.5390448,51.1494638 37.6427948,55.6787138 C35.3162948,53.6244638 33.0392948,51.4959638 30.9107948,49.2437138 C28.6832948,46.8677138 26.5795448,44.3432138 25.1935448,41.3732137 C24.2530448,39.2942138 23.8322947,36.8687138 24.5500448,34.6659637 C25.2677948,32.4137138 26.8765448,30.6069638 28.4852948,28.9239637 C32.9650448,24.4442138 38.4845423,21.1524637 42.8650448,16.5984637 C45.2907923,14.0987137 47.2955423,11.1039637 47.9880473,7.66371375 C48.5575448,5.13921375 48.2855423,2.54046375 47.7657923,0.04071375" id="Fill-1" fill="#E82E2F"></path>
                    <path d="M47.7657923,0.04071375 C50.0917973,2.68896375 50.8595423,6.47571375 50.1910448,9.89121375 C49.4730473,13.7274638 47.3447948,17.1182137 44.8450448,20.0387137 C42.8405423,22.3899637 40.5385448,24.4689637 38.1380423,26.3994637 C35.3410448,28.6517138 32.5937948,31.0772137 30.8365448,34.2452138 C29.3515448,36.8192138 29.0050448,39.9872138 30.0197948,42.7839638 C31.6780448,47.5854638 35.5390448,51.1494638 37.6427948,55.6787138 C35.3162948,53.6244638 33.0392948,51.4959638 30.9107948,49.2437138 C28.6832948,46.8677138 26.5795448,44.3432138 25.1935448,41.3732137 C24.2530448,39.2942138 23.8322947,36.8687138 24.5500448,34.6659637 C25.2677948,32.4137138 26.8765448,30.6069638 28.4852948,28.9239637 C32.9650448,24.4442138 38.4845423,21.1524637 42.8650448,16.5984637 C45.2907923,14.0987137 47.2955423,11.1039637 47.9880473,7.66371375 C48.5575448,5.13921375 48.2855423,2.54046375 47.7657923,0.04071375 Z" id="Stroke-3" stroke="#E82E2F" stroke-width="0.825"></path>
                    <path d="M44.102619,28.2310627 C48.904119,24.6918127 54.522369,22.4395628 60.214869,20.8060627 C55.710369,23.6770628 51.007869,26.3005627 47.1218715,29.9883128 C45.711369,31.3495628 44.374869,32.9088127 43.756119,34.8145628 C43.2856215,36.2253128 43.483869,37.7845628 44.0533665,39.1210627 C45.092619,41.4970627 46.849869,43.4275627 48.186369,45.6055627 C49.324869,47.4618127 49.522869,49.8378127 48.656619,51.8425627 C47.344869,54.7878128 44.7706215,56.9410628 42.097869,58.6488128 C41.751369,58.8468127 41.4546165,59.2180627 41.033619,59.2675627 C42.8158665,57.6588127 44.201619,55.3818127 44.1518715,52.9315627 C44.102619,51.1000627 43.087869,49.4913128 41.899869,48.1795628 C39.4493715,45.2590627 37.395369,41.5465628 37.816119,37.6113127 C38.2371165,33.6760627 41.0581215,30.5080627 44.102619,28.2310627" id="Fill-5" fill="#E82E2F"></path>
                    <path d="M44.102619,28.2310627 C48.904119,24.6918127 54.522369,22.4395628 60.214869,20.8060627 C55.710369,23.6770628 51.007869,26.3005627 47.1218715,29.9883128 C45.711369,31.3495628 44.374869,32.9088127 43.756119,34.8145628 C43.2856215,36.2253128 43.483869,37.7845628 44.0533665,39.1210627 C45.092619,41.4970627 46.849869,43.4275627 48.186369,45.6055627 C49.324869,47.4618127 49.522869,49.8378127 48.656619,51.8425627 C47.344869,54.7878128 44.7706215,56.9410628 42.097869,58.6488128 C41.751369,58.8468127 41.4546165,59.2180627 41.033619,59.2675627 C42.8158665,57.6588127 44.201619,55.3818127 44.1518715,52.9315627 C44.102619,51.1000627 43.087869,49.4913128 41.899869,48.1795628 C39.4493715,45.2590627 37.395369,41.5465628 37.816119,37.6113127 C38.2371165,33.6760627 41.0581215,30.5080627 44.102619,28.2310627 Z" id="Stroke-7" stroke="#E82E2F" stroke-width="0.825"></path>
                    <path d="M61.1307922,56.8419637 C62.1700448,55.5797137 63.8280472,55.2579637 65.3382923,55.0599637 C67.9617923,54.7134637 70.7580472,55.3817137 72.7380472,57.1884637 C74.3720423,58.6487137 75.2875447,60.9257137 74.9410448,63.1284637 C74.5697947,65.6777137 72.8617972,67.8062137 70.9317923,69.4149637 C67.4420423,72.2117137 63.1355422,73.8452137 58.8287948,74.9344612 C59.0762948,74.6619637 59.3485448,74.4144637 59.6705422,74.2164637 C62.9372947,72.4592137 66.1792972,70.4049637 68.5805422,67.5339637 C70.0407923,65.7519637 71.1792922,63.4254637 70.7087947,61.0742137 C70.2137947,58.3517137 67.5657923,56.3717137 64.8680423,56.2232137 C63.5805472,56.0994637 62.3682922,56.5944637 61.1307922,56.8419637" id="Fill-9" fill="#0774BB"></path>
                    <path d="M61.1307922,56.8419637 C62.1700448,55.5797137 63.8280472,55.2579637 65.3382923,55.0599637 C67.9617923,54.7134637 70.7580472,55.3817137 72.7380472,57.1884637 C74.3720423,58.6487137 75.2875447,60.9257137 74.9410448,63.1284637 C74.5697947,65.6777137 72.8617972,67.8062137 70.9317923,69.4149637 C67.4420423,72.2117137 63.1355422,73.8452137 58.8287948,74.9344612 C59.0762948,74.6619637 59.3485448,74.4144637 59.6705422,74.2164637 C62.9372947,72.4592137 66.1792972,70.4049637 68.5805422,67.5339637 C70.0407923,65.7519637 71.1792922,63.4254637 70.7087947,61.0742137 C70.2137947,58.3517137 67.5657923,56.3717137 64.8680423,56.2232137 C63.5805472,56.0994637 62.3682922,56.5944637 61.1307922,56.8419637 Z" id="Stroke-11" stroke="#0774BB" stroke-width="0.825"></path>
                    <path d="M11.3830695,59.0942385 C15.9370695,57.1389885 20.8870695,55.8767385 25.8618195,55.9509885 C22.9660695,56.7924885 19.9960695,57.5102385 17.2735695,58.7972385 C16.6300695,59.1437385 15.8875695,59.4654885 15.5163195,60.1337385 C15.3183195,60.6534885 15.8628195,60.9999885 16.2588195,61.1732385 C17.9418195,61.8662385 19.7980695,61.9652385 21.6048195,62.1384885 C27.9408195,62.5592385 34.3015695,62.3117385 40.613067,61.9157385 C46.8498195,61.5197385 53.0373195,60.6782385 59.2000695,59.6882385 C57.8388195,60.3317385 56.453067,60.9752385 55.190817,61.7919885 C54.546822,62.2374885 53.7550695,62.3612385 53.0373195,62.5344885 C45.4638195,64.2174885 37.6923195,64.7372385 29.9703195,64.8609885 C26.9755695,64.8857385 24.0055695,64.8362385 21.0355695,64.6382385 C17.7190695,64.4154885 14.3778195,64.1679885 11.1355695,63.3017385 C10.1950695,63.0294885 9.2050695,62.7324885 8.4625695,62.0642385 C8.0913195,61.7672385 8.0913195,61.1732385 8.4130695,60.8267385 C9.2298195,59.9852385 10.3683195,59.5892385 11.3830695,59.0942385" id="Fill-13" fill="#0774BB"></path>
                    <path d="M11.3830695,59.0942385 C15.9370695,57.1389885 20.8870695,55.8767385 25.8618195,55.9509885 C22.9660695,56.7924885 19.9960695,57.5102385 17.2735695,58.7972385 C16.6300695,59.1437385 15.8875695,59.4654885 15.5163195,60.1337385 C15.3183195,60.6534885 15.8628195,60.9999885 16.2588195,61.1732385 C17.9418195,61.8662385 19.7980695,61.9652385 21.6048195,62.1384885 C27.9408195,62.5592385 34.3015695,62.3117385 40.613067,61.9157385 C46.8498195,61.5197385 53.0373195,60.6782385 59.2000695,59.6882385 C57.8388195,60.3317385 56.453067,60.9752385 55.190817,61.7919885 C54.546822,62.2374885 53.7550695,62.3612385 53.0373195,62.5344885 C45.4638195,64.2174885 37.6923195,64.7372385 29.9703195,64.8609885 C26.9755695,64.8857385 24.0055695,64.8362385 21.0355695,64.6382385 C17.7190695,64.4154885 14.3778195,64.1679885 11.1355695,63.3017385 C10.1950695,63.0294885 9.2050695,62.7324885 8.4625695,62.0642385 C8.0913195,61.7672385 8.0913195,61.1732385 8.4130695,60.8267385 C9.2298195,59.9852385 10.3683195,59.5892385 11.3830695,59.0942385 Z" id="Stroke-15" stroke="#0774BB" stroke-width="0.825"></path>
                    <path d="M17.2240943,69.662538 C18.5110943,68.647788 20.0455943,68.078538 21.5800943,67.534038 C21.0850943,68.128038 20.3920943,68.697288 20.3425943,69.514038 C20.3178443,70.033788 20.7385943,70.429788 21.1593443,70.677288 C21.9760943,71.098038 22.8918443,71.246538 23.8075943,71.370288 C28.5595943,71.865288 33.3610943,72.137538 38.1625943,71.815788 C42.5430968,71.593038 46.8995918,70.875288 51.2308418,70.108038 C52.4185943,71.221788 53.8295918,71.989038 55.3145918,72.657288 C50.0918468,74.1915405 44.7213443,75.082788 39.3255968,75.503538 C34.2273443,75.850038 29.0545943,75.825288 23.9808443,75.008538 C21.9760943,74.637288 19.9218443,74.216538 18.0903443,73.276038 C17.3478443,72.880038 16.5063443,72.360288 16.2835943,71.494038 C16.1350943,70.751538 16.6795943,70.083288 17.2240943,69.662538" id="Fill-17" fill="#0774BB"></path>
                    <path d="M17.2240943,69.662538 C18.5110943,68.647788 20.0455943,68.078538 21.5800943,67.534038 C21.0850943,68.128038 20.3920943,68.697288 20.3425943,69.514038 C20.3178443,70.033788 20.7385943,70.429788 21.1593443,70.677288 C21.9760943,71.098038 22.8918443,71.246538 23.8075943,71.370288 C28.5595943,71.865288 33.3610943,72.137538 38.1625943,71.815788 C42.5430968,71.593038 46.8995918,70.875288 51.2308418,70.108038 C52.4185943,71.221788 53.8295918,71.989038 55.3145918,72.657288 C50.0918468,74.1915405 44.7213443,75.082788 39.3255968,75.503538 C34.2273443,75.850038 29.0545943,75.825288 23.9808443,75.008538 C21.9760943,74.637288 19.9218443,74.216538 18.0903443,73.276038 C17.3478443,72.880038 16.5063443,72.360288 16.2835943,71.494038 C16.1350943,70.751538 16.6795943,70.083288 17.2240943,69.662538 Z" id="Stroke-19" stroke="#0774BB" stroke-width="0.825"></path>
                    <path d="M20.095119,80.4535627 C21.233619,79.5378127 22.644369,79.0673152 24.030369,78.6715627 C23.584869,79.0923127 22.792869,79.6120627 23.139369,80.3298127 C23.807619,81.1960627 25.045119,81.2948152 26.035119,81.5178127 C30.217869,82.0373152 34.450119,82.3840627 38.632869,82.0623127 C41.8006215,81.8643127 44.9196165,81.2948152 48.0133665,80.7505627 C49.795119,81.7898152 51.651369,82.6810627 53.5568715,83.4730627 C50.636619,84.7848127 47.4931215,85.6260652 44.350119,86.2203127 C39.053619,87.1608127 33.583869,87.2845627 28.262619,86.4430627 C25.911369,86.0223127 23.510619,85.4778127 21.382119,84.3145627 C20.565369,83.8443127 19.699119,83.2998127 19.352619,82.3840627 C19.080369,81.6660652 19.525869,80.8990627 20.095119,80.4535627" id="Fill-21" fill="#0774BB"></path>
                    <path d="M20.095119,80.4535627 C21.233619,79.5378127 22.644369,79.0673152 24.030369,78.6715627 C23.584869,79.0923127 22.792869,79.6120627 23.139369,80.3298127 C23.807619,81.1960627 25.045119,81.2948152 26.035119,81.5178127 C30.217869,82.0373152 34.450119,82.3840627 38.632869,82.0623127 C41.8006215,81.8643127 44.9196165,81.2948152 48.0133665,80.7505627 C49.795119,81.7898152 51.651369,82.6810627 53.5568715,83.4730627 C50.636619,84.7848127 47.4931215,85.6260652 44.350119,86.2203127 C39.053619,87.1608127 33.583869,87.2845627 28.262619,86.4430627 C25.911369,86.0223127 23.510619,85.4778127 21.382119,84.3145627 C20.565369,83.8443127 19.699119,83.2998127 19.352619,82.3840627 C19.080369,81.6660652 19.525869,80.8990627 20.095119,80.4535627 Z" id="Stroke-23" stroke="#0774BB" stroke-width="0.825"></path>
                    <path d="M6.358869,87.4577632 C8.635869,86.6905132 10.987119,86.0717632 13.387869,85.9975132 C14.353119,85.9727632 15.343119,86.0222632 16.184619,86.5172632 C13.313619,86.6905132 10.442619,87.4082632 7.868619,88.7200132 C7.299369,89.0417632 6.655869,89.4130132 6.433119,90.0812632 C6.433119,90.8485132 7.299369,91.0960132 7.868619,91.3435133 C11.457369,92.6800133 15.293619,93.1007632 19.055619,93.4967632 C30.267369,94.4372633 41.5531215,94.1897632 52.765119,93.1750132 C56.997369,92.7047632 61.2546165,92.2345132 65.362869,91.0712633 C66.6743715,90.6257632 68.1593715,90.1802632 69.0256215,89.0170132 C69.5458665,88.3240132 69.199119,87.4577632 68.6796165,86.8637632 C69.5206215,87.3340132 70.708869,87.9280132 70.5358665,89.0665132 C70.213869,90.2545133 69.001119,90.8732632 68.011119,91.4425132 C64.8433665,93.0512632 61.3531215,93.8680132 57.8881215,94.5857632 C47.815119,96.5657632 37.494369,97.0112632 27.247869,96.7142632 C19.525869,96.4420133 11.803869,95.6995132 4.180869,94.3877632 C2.819619,94.0660132 1.285119,93.7937632 0.295119,92.7295132 C-0.348381,91.9870132 0.220869,90.9475133 0.839619,90.4030133 C2.398869,88.9675132 4.403619,88.1755132 6.358869,87.4577632" id="Fill-25" fill="#0774BB"></path>
                    <path d="M6.358869,87.4577632 C8.635869,86.6905132 10.987119,86.0717632 13.387869,85.9975132 C14.353119,85.9727632 15.343119,86.0222632 16.184619,86.5172632 C13.313619,86.6905132 10.442619,87.4082632 7.868619,88.7200132 C7.299369,89.0417632 6.655869,89.4130132 6.433119,90.0812632 C6.433119,90.8485132 7.299369,91.0960132 7.868619,91.3435133 C11.457369,92.6800133 15.293619,93.1007632 19.055619,93.4967632 C30.267369,94.4372633 41.5531215,94.1897632 52.765119,93.1750132 C56.997369,92.7047632 61.2546165,92.2345132 65.362869,91.0712633 C66.6743715,90.6257632 68.1593715,90.1802632 69.0256215,89.0170132 C69.5458665,88.3240132 69.199119,87.4577632 68.6796165,86.8637632 C69.5206215,87.3340132 70.708869,87.9280132 70.5358665,89.0665132 C70.213869,90.2545133 69.001119,90.8732632 68.011119,91.4425132 C64.8433665,93.0512632 61.3531215,93.8680132 57.8881215,94.5857632 C47.815119,96.5657632 37.494369,97.0112632 27.247869,96.7142632 C19.525869,96.4420133 11.803869,95.6995132 4.180869,94.3877632 C2.819619,94.0660132 1.285119,93.7937632 0.295119,92.7295132 C-0.348381,91.9870132 0.220869,90.9475133 0.839619,90.4030133 C2.398869,88.9675132 4.403619,88.1755132 6.358869,87.4577632 Z" id="Stroke-27" stroke="#0774BB" stroke-width="0.825"></path>
                    <path d="M68.035671,95.9223128 C70.535916,95.0560628 73.208421,94.1403128 75.064671,92.1603128 C74.743416,94.3135628 72.887166,95.7985628 71.0554185,96.7635652 C67.540671,98.5953128 63.605916,99.4368128 59.6951685,100.129813 C51.428421,101.441563 43.038171,101.763313 34.6481685,101.614813 C28.9309185,101.441563 23.1641685,101.218565 17.5459185,100.030813 C16.2094185,99.6595628 14.7739185,99.4120628 13.6106685,98.6198153 C18.6101685,99.4615627 23.6839185,99.8080628 28.7576685,100.006063 C37.0984185,100.253563 45.4639185,99.9318128 53.7551685,98.8923128 C58.5566685,98.2240628 63.3829185,97.4073128 68.035671,95.9223128" id="Fill-29" fill="#0774BB"></path>
                    <path d="M68.035671,95.9223128 C70.535916,95.0560628 73.208421,94.1403128 75.064671,92.1603128 C74.743416,94.3135628 72.887166,95.7985628 71.0554185,96.7635652 C67.540671,98.5953128 63.605916,99.4368128 59.6951685,100.129813 C51.428421,101.441563 43.038171,101.763313 34.6481685,101.614813 C28.9309185,101.441563 23.1641685,101.218565 17.5459185,100.030813 C16.2094185,99.6595628 14.7739185,99.4120628 13.6106685,98.6198153 C18.6101685,99.4615627 23.6839185,99.8080628 28.7576685,100.006063 C37.0984185,100.253563 45.4639185,99.9318128 53.7551685,98.8923128 C58.5566685,98.2240628 63.3829185,97.4073128 68.035671,95.9223128 Z" id="Stroke-31" stroke="#0774BB" stroke-width="0.825"></path>
                </g>
            </g>
        </g>
    </g>
</svg>