<?xml version="1.0" encoding="UTF-8"?>
<svg width="104px" height="93px" viewBox="0 0 104 93" version="1.1" xmlns="http://www.w3.org/2000/svg" xmlns:xlink="http://www.w3.org/1999/xlink">
    <!-- Generator: sketchtool 61 (101010) - https://sketch.com -->
    <title>47EA826B-711C-41D6-8EAE-F81365F88538</title>
    <desc>Created with sketchtool.</desc>
    <g id="Welcome" stroke="none" stroke-width="1" fill="none" fill-rule="evenodd">
        <g id="Technologies-Tiles" transform="translate(-968.000000, -452.000000)" fill="#53C1DE" fill-rule="nonzero">
            <g id="ReactJS" transform="translate(935.000000, 452.000000)">
                <path d="M110.897361,1.18357903 C116.555878,4.46250185 118.212838,14.4232476 115.67861,26.7876733 C115.520258,27.5558036 115.347782,28.3209239 115.16127,29.0826417 C116.285947,29.4077515 117.402294,29.7612916 118.50925,30.1429255 C129.741596,34.0292447 137,40.1170867 137,46.4117118 C137,52.9764965 129.243127,59.395099 117.320381,63.3651491 C116.690276,63.5751704 116.044522,63.7768649 115.386341,63.9720829 C115.621077,64.9213422 115.830498,65.8534852 116.010002,66.7661989 C118.363805,78.7156706 116.551275,88.5371732 110.972844,91.7827886 C105.571616,94.9252439 96.8421994,91.8383009 88.0032396,84.1938032 C87.042485,83.3608642 86.1050181,82.5011701 85.1919312,81.6157224 C84.4670113,82.3202652 83.7430119,82.9924259 83.0217742,83.6261906 C73.8965285,91.6430828 64.5255005,94.9691911 58.9420064,91.7332902 C53.5361752,88.5991618 51.8373312,79.4567589 54.0125511,67.9425957 C54.2502347,66.6912528 54.5226655,65.4468304 54.8295243,64.2107855 C53.8849565,63.9397909 52.9472557,63.6451762 52.0172954,63.3272158 C40.5483722,59.3876973 33,52.8899899 33,46.4117118 C33,40.1397542 40.0319531,34.0926212 51.0424507,30.2345207 C52.2732036,29.8033756 53.5596488,29.3981363 54.8916603,29.0178775 C54.6063103,27.8705695 54.3500126,26.7161592 54.1230151,25.5557642 C51.8414736,13.8380561 53.4468835,4.4736043 58.866983,1.32004661 C64.5195171,-1.96859085 73.9333499,1.56291265 83.3250898,9.94433529 C83.9092813,10.4668205 84.4837926,11.0001379 85.048328,11.5440129 C85.8913298,10.7260829 86.7547586,9.92969074 87.6377879,9.15559892 C96.5991786,1.3177336 105.472198,-1.96118922 110.897361,1.18357903 Z M111.088831,65.1049952 C106.781196,66.1056032 102.031245,66.8388274 97.0032927,67.2870887 C94.1450371,71.4458805 91.2163607,75.1911061 88.2858433,78.4126663 C89.1612703,79.2592279 90.0343961,80.0595293 90.9010781,80.8089445 C98.4595762,87.3464357 105.468976,89.8250571 108.746535,87.9182117 C110.286587,87.0221517 111.532068,84.7850085 112.151587,81.4292938 C112.841066,77.694708 112.6924,72.9174174 111.651738,67.6335776 C111.489263,66.8087583 111.300554,65.9654348 111.088831,65.1049952 Z M59.1371594,65.3048392 C58.8521401,66.4543737 58.5988961,67.6116319 58.3777196,68.7752793 C56.5177822,78.6217624 57.8810919,85.9632558 61.1618722,87.8645499 C62.6482539,88.7259313 65.0727622,88.7265845 68.1151478,87.7064018 L68.455717,87.5888391 C72.0195613,86.3236227 76.0630034,83.8089183 80.0981607,80.2635368 C80.7735165,79.6687219 81.4341993,79.0572852 82.0796084,78.4297825 C79.0427694,75.1540979 76.029404,71.4134983 73.1522774,67.3439887 C68.1123582,66.9331982 63.3969268,66.2517855 59.1371594,65.3048392 Z M91.2780364,67.6682727 C89.2155818,67.7607931 87.119988,67.8084411 85,67.8084411 C82.9366248,67.8084411 80.9063889,67.7686574 78.9152755,67.690015 C80.9666838,70.4068764 83.0668803,72.9326832 85.1726,75.2165492 C87.2078989,72.9641402 89.2528634,70.4346326 91.2780364,67.6682727 Z M85.0004603,29.6664454 C81.7947034,29.6664454 78.6234665,29.7894976 75.530475,30.0244994 C74.003111,32.2740122 72.5490831,34.5728056 71.1706819,36.9172143 L70.4877941,38.0932031 C68.9086484,40.8444559 67.4330645,43.6553624 66.0641718,46.5190355 C67.4365551,49.381851 68.9166116,52.1912525 70.5011418,54.9411671 C72.0931131,57.7057495 73.7885667,60.4088151 75.5838659,63.044566 C78.615642,63.242097 81.7638655,63.3434068 85,63.3434068 C88.2494822,63.3434068 91.4382092,63.2291441 94.5238365,63.0075578 C96.27375,60.3656557 97.9377259,57.6672602 99.5131264,54.9166492 C101.102628,52.150533 102.593149,49.3284143 103.982315,46.455659 C102.57871,43.6118773 101.083434,40.8147401 99.4988582,38.0686852 C97.923184,35.3298072 96.2518365,32.6476681 94.4879357,30.027275 C91.3958647,29.7904228 88.2204854,29.6664454 85.0004603,29.6664454 Z M63.7076068,51.7695679 C62.3861814,54.9198874 61.2548461,58.0174703 60.3366142,60.9975522 C63.3030324,61.6465828 66.5152331,62.1642344 69.9212059,62.5463436 C68.790538,60.7833338 67.7018516,58.9934808 66.6560746,57.1783103 C65.6312032,55.3988756 64.6481088,53.5954629 63.7076068,51.7695679 Z M106.378003,51.6090451 C105.413634,53.4773975 104.408009,55.3239451 103.361876,57.1473159 C102.332785,58.94142 101.268285,60.7147701 100.169006,62.4663135 C103.599373,62.0527473 106.854839,61.4957745 109.870506,60.8041846 C108.939847,57.8745262 107.768008,54.7935971 106.378003,51.6090451 Z M56.0846714,33.3191506 C54.880772,33.6612916 53.6870962,34.0387823 52.505178,34.4511377 C43.0885836,37.7508776 37.4424932,42.6058854 37.4424932,46.4117118 C37.4424932,48.2005937 38.7450477,50.4048921 41.3243817,52.6253816 C44.1950645,55.0956762 48.3830303,57.3596502 53.4542477,59.1018093 C54.3033228,59.3921459 55.1593704,59.6614616 56.0216148,59.9095124 C57.3352157,55.6050009 59.0667387,51.0858422 61.1535874,46.5204233 C59.0934341,42.0220817 57.3863053,37.573701 56.0846714,33.3191506 Z M113.971481,33.3848401 C112.69194,37.5459449 110.984351,41.9420515 108.909929,46.4339167 C111.083308,51.0344934 112.859937,55.4879626 114.1763,59.6758984 C114.770964,59.4987218 115.354582,59.315994 115.923012,59.1267898 C126.217334,55.6984465 132.557507,50.4525401 132.557507,46.4117118 C132.557507,42.6183756 126.687267,37.6949028 117.063092,34.3655563 C116.067996,34.0209178 115.035157,33.6947835 113.971481,33.3848401 Z M85,37.0777917 C90.129211,37.0777917 94.2867992,41.256938 94.2867992,46.4117118 C94.2867992,51.5669483 90.129211,55.7460945 85,55.7460945 C79.8712493,55.7460945 75.7132008,51.5669483 75.7132008,46.4117118 C75.7132008,41.256938 79.8712493,37.0777917 85,37.0777917 Z M100.181434,30.6041396 C101.272823,32.32358 102.327232,34.0664518 103.343925,35.831542 C104.377094,37.6244369 105.374537,39.4378898 106.335658,41.270816 C107.6511,38.1760088 108.768167,35.1570683 109.664306,32.2699694 C106.679017,31.5848558 103.499956,31.0251074 100.181434,30.6041396 Z M69.826391,30.5958128 C66.5295013,31.0098416 63.3651684,31.5552493 60.3978297,32.222784 C61.3017933,35.1510545 62.4087344,38.1834104 63.7025439,41.2675778 C64.6390976,39.4430353 65.6178909,37.6407099 66.6381242,35.8620737 C67.6597213,34.0818135 68.7227699,32.3259093 69.826391,30.5958128 Z M90.5544973,12.5242665 C89.7392721,13.2391674 88.9418443,13.9743146 88.1629521,14.7290275 C91.1353538,17.9478121 94.0962488,21.6666694 96.9540442,25.7565335 C101.859566,26.2191355 106.54508,26.9639247 110.859619,27.9645327 C111.027928,27.2747491 111.183831,26.5819668 111.32725,25.8865247 C113.515357,15.2110588 112.160792,7.0706518 108.678415,5.05185677 C105.408681,3.15657646 98.2326648,5.808211 90.5544973,12.5242665 Z M61.0928322,5.18462354 C57.8263202,7.08499246 56.5283684,14.6582494 58.4831206,24.6981002 C58.6944255,25.777048 58.9327658,26.850934 59.1979146,27.9182725 C63.5023279,26.938019 68.18462,26.2061826 73.0758732,25.7505197 C75.9281453,21.7046028 78.9138947,17.9922219 81.9350847,14.7313406 C81.4136026,14.2303426 80.8930411,13.7459983 80.3747809,13.2833964 C72.265804,6.04691362 64.5724477,3.16027728 61.0928322,5.18462354 Z M85.0497088,17.922369 C82.9683832,20.1794041 80.8985643,22.6672775 78.8779939,25.3452803 C82.9730675,25.1526427 87.0748868,25.1535689 91.1698738,25.348056 C89.1511445,22.6450726 87.0988157,20.1534983 85.0497088,17.922369 Z" id="icon-reactjs"></path>
            </g>
        </g>
    </g>
</svg>