<?xml version="1.0" encoding="UTF-8"?>
<svg width="106px" height="52px" viewBox="0 0 106 52" version="1.1" xmlns="http://www.w3.org/2000/svg" xmlns:xlink="http://www.w3.org/1999/xlink">
    <!-- Generator: sketchtool 61 (101010) - https://sketch.com -->
    <title>865620A4-6F12-4A86-B9BB-C29F2FC9729D</title>
    <desc>Created with sketchtool.</desc>
    <g id="Welcome" stroke="none" stroke-width="1" fill="none" fill-rule="evenodd">
        <g id="Technologies-Tiles" transform="translate(-168.000000, -703.000000)" fill="#2E3C8A">
            <g id="PHP" transform="translate(135.000000, 703.000000)">
                <path d="M57.5188611,10.9212438 C62.5572793,10.9212438 66.232615,12.2799038 68.5427905,14.9972238 C70.8529659,17.7141168 71.548221,21.5065801 70.6268937,26.3767485 C70.2474747,28.3822878 69.605413,30.2166068 68.7023708,31.8779978 C67.798082,33.5406697 66.6174365,35.0611563 65.1575253,36.4390305 C63.418764,38.111523 61.4867609,39.3032327 59.3611003,40.0128785 C57.2350242,40.7242322 54.5271445,41.0786281 51.2353835,41.0786281 L51.2353835,41.0786281 L43.7754161,41.0786281 L41.7095982,52 L33,52 L40.7708167,10.9212438 Z M125.497861,10.9212438 C130.536279,10.9212438 134.211615,12.2799038 136.52179,14.9972238 C138.832381,17.7141168 139.527636,21.5065801 138.605893,26.3767485 C138.22689,28.3822878 137.584828,30.2166068 136.68137,31.8779978 C135.777082,33.5406697 134.596436,35.0611563 133.136941,36.4390305 C131.397764,38.111523 129.465761,39.3032327 127.3401,40.0128785 C125.213608,40.7242322 122.506144,41.0786281 119.214383,41.0786281 L119.214383,41.0786281 L111.754416,41.0786281 L109.688598,52 L100.979,52 L108.749401,10.9212438 Z M85.6640618,-3.19744231e-13 L83.5982439,10.9213719 L91.2963352,10.9213719 C96.1398492,10.9213719 99.4806479,11.7898554 101.319562,13.5251144 C103.158477,15.2612274 103.709112,18.0741916 102.973962,21.963153 L99.3584692,41.0787562 L90.5803013,41.0787562 L94.0179287,22.9029427 C94.4089838,20.8354908 94.2656108,19.4251659 93.5857319,18.6732488 C92.9070997,17.9213317 91.461318,17.5447326 89.2504648,17.5447326 L82.344873,17.5447326 L77.8936607,41.0787562 L69.2526323,41.0787562 L77.0234489,-3.19744231e-13 L85.6640618,-3.19744231e-13 Z M54.220451,17.4037001 L48.2532251,17.4037001 L45.0009436,34.5961718 L50.2986799,34.5961718 C53.8102795,34.5961718 56.4259017,33.9168418 58.1447155,32.5573278 C59.8635292,31.1978138 61.0225648,28.9283991 61.625147,25.7490834 C62.201548,22.6961548 61.9389053,20.5415984 60.8372189,19.2862683 C59.7347013,18.0309382 57.5296661,17.4037001 54.220451,17.4037001 L54.220451,17.4037001 Z M122.199451,17.4037001 L116.232225,17.4037001 L112.980359,34.5961718 L118.278095,34.5961718 C121.789279,34.5961718 124.404901,33.9168418 126.123715,32.5573278 C127.842944,31.1978138 129.00198,28.9283991 129.604147,25.7490834 C130.180963,22.6961548 129.918321,20.5415984 128.816219,19.2862683 C127.713701,18.0309382 125.50825,17.4037001 122.199451,17.4037001 L122.199451,17.4037001 Z" id="icon-php"></path>
            </g>
        </g>
    </g>
</svg>