<?xml version="1.0" encoding="UTF-8"?>
<svg width="93px" height="94px" viewBox="0 0 93 94" version="1.1" xmlns="http://www.w3.org/2000/svg" xmlns:xlink="http://www.w3.org/1999/xlink">
    <!-- Generator: sketchtool 61 (101010) - https://sketch.com -->
    <title>87999B4D-97A0-4745-8403-97D07F93FA7A</title>
    <desc>Created with sketchtool.</desc>
    <defs>
        <path d="M45.8038944,0.0376992 C41.980752,0.0552816 38.3301072,0.3812688 35.1182304,0.9500832 L35.1182304,0.9500832 C25.6554144,2.622312 23.9372496,6.1212096 23.9372496,12.5749008 L23.9372496,12.5749008 L23.9372496,21.0979296 L46.2993696,21.0979296 L46.2993696,23.9386752 L15.5442672,23.9386752 C9.0455904,23.9386752 3.35412,27.8452944 1.5743376,35.276472 L1.5743376,35.276472 C0.540144,39.5661024 0.0038016,43.0439328 0,46.5753024 L0,46.5753024 L0,46.648008 C0.0034848,50.1052464 0.5173344,53.6198256 1.5743376,58.0038624 L1.5743376,58.0038624 C3.16404,64.6243488 6.9605712,69.3416592 13.4594064,69.3416592 L13.4594064,69.3416592 L21.1481424,69.3416592 L21.1481424,59.1248592 C21.1481424,51.743736 27.5345136,45.2331792 35.1182304,45.2331792 L35.1182304,45.2331792 L57.4545312,45.2331792 C63.6722064,45.2331792 68.6356704,40.114008 68.6356704,33.8695632 L68.6356704,33.8695632 L68.6356704,12.5741088 C68.6356704,6.5140416 63.5229936,1.960992 57.4545312,0.9492912 L57.4545312,0.9492912 C53.726112,0.329472 49.8633696,0.0369072 46.1444544,0.0369072 L46.1444544,0.0369072 C46.0308816,0.0369072 45.9173088,0.0369072 45.8038944,0.0376992 M29.5145136,11.1662496 C29.5145136,8.8092576 31.3926624,6.8918256 33.7103712,6.8918256 L33.7103712,6.8918256 C36.0207936,6.8918256 37.9063872,8.8092576 37.9063872,11.1662496 L37.9063872,11.1662496 C37.9063872,13.5150048 36.0198432,15.4148544 33.7103712,15.4148544 L33.7103712,15.4148544 C31.3926624,15.4148544 29.5145136,13.5157968 29.5145136,11.1662496" id="path-1"></path>
        <linearGradient x1="-2.23519187%" y1="3.89392284%" x2="70.84845%" y2="68.0059328%" id="linearGradient-3">
            <stop stop-color="#599ED4" offset="0%"></stop>
            <stop stop-color="#2F6997" offset="100%"></stop>
        </linearGradient>
        <path d="M47.5062192,0.0193248 L47.5062192,9.9494208 C47.5062192,17.6482944 40.9790304,24.1279632 33.5361312,24.1279632 L33.5361312,24.1279632 L11.1998304,24.1279632 C5.081472,24.1279632 0.0188496,29.3640336 0.0188496,35.4915792 L0.0188496,35.4915792 L0.0188496,56.7854496 C0.0188496,62.8463088 5.2883424,66.4109424 11.1998304,68.1490656 L11.1998304,68.1490656 C18.2784096,70.2309168 25.0664832,70.6069584 33.5361312,68.1490656 L33.5361312,68.1490656 C39.165984,66.519288 44.7172704,63.2383488 44.7172704,56.7854496 L44.7172704,56.7854496 L44.7172704,48.2632128 L22.3809696,48.2632128 L22.3809696,45.4226256 L55.8984096,45.4226256 C62.3978784,45.4226256 64.8190224,40.8887424 67.0793904,34.0846704 L67.0793904,34.0846704 C68.2308,30.6312336 68.7902688,27.243216 68.7937536,23.618232 L68.7937536,23.618232 L68.7937536,23.5456848 C68.7897936,19.838808 68.2057728,15.88356 67.0793904,11.3571216 L67.0793904,11.3571216 C65.473056,4.8877488 62.4053232,0.0193248 55.8984096,0.0193248 L55.8984096,0.0193248 L47.5062192,0.0193248 Z M30.747024,58.1933088 C30.747024,55.8445536 32.6337264,53.944704 34.9431984,53.944704 L34.9431984,53.944704 C37.2609072,53.944704 39.1392144,55.8437616 39.1392144,58.1933088 L39.1392144,58.1933088 C39.1392144,60.5503008 37.2609072,62.4677328 34.9431984,62.4677328 L34.9431984,62.4677328 C32.6329344,62.4677328 30.747024,60.5503008 30.747024,58.1933088 L30.747024,58.1933088 Z" id="path-4"></path>
        <linearGradient x1="64.5836684%" y1="71.7685389%" x2="38.8286481%" y2="34.4053024%" id="linearGradient-6">
            <stop stop-color="#FFD43B" offset="0%"></stop>
            <stop stop-color="#FFE872" offset="100%"></stop>
        </linearGradient>
    </defs>
    <g id="Welcome" stroke="none" stroke-width="1" fill="none" fill-rule="evenodd">
        <g id="Technologies-Tiles" transform="translate(-374.000000, -677.000000)">
            <g id="Python" transform="translate(335.000000, 677.000000)">
                <g id="icon-python" transform="translate(39.000000, 0.000000)">
                    <g id="Group-3" transform="translate(0.000000, 0.121493)">
                        <mask id="mask-2" fill="white">
                            <use xlink:href="#path-1"></use>
                        </mask>
                        <g id="Clip-2"></g>
                        <path d="M45.8038944,0.0376992 C41.980752,0.0552816 38.3301072,0.3812688 35.1182304,0.9500832 L35.1182304,0.9500832 C25.6554144,2.622312 23.9372496,6.1212096 23.9372496,12.5749008 L23.9372496,12.5749008 L23.9372496,21.0979296 L46.2993696,21.0979296 L46.2993696,23.9386752 L15.5442672,23.9386752 C9.0455904,23.9386752 3.35412,27.8452944 1.5743376,35.276472 L1.5743376,35.276472 C0.540144,39.5661024 0.0038016,43.0439328 0,46.5753024 L0,46.5753024 L0,46.648008 C0.0034848,50.1052464 0.5173344,53.6198256 1.5743376,58.0038624 L1.5743376,58.0038624 C3.16404,64.6243488 6.9605712,69.3416592 13.4594064,69.3416592 L13.4594064,69.3416592 L21.1481424,69.3416592 L21.1481424,59.1248592 C21.1481424,51.743736 27.5345136,45.2331792 35.1182304,45.2331792 L35.1182304,45.2331792 L57.4545312,45.2331792 C63.6722064,45.2331792 68.6356704,40.114008 68.6356704,33.8695632 L68.6356704,33.8695632 L68.6356704,12.5741088 C68.6356704,6.5140416 63.5229936,1.960992 57.4545312,0.9492912 L57.4545312,0.9492912 C53.726112,0.329472 49.8633696,0.0369072 46.1444544,0.0369072 L46.1444544,0.0369072 C46.0308816,0.0369072 45.9173088,0.0369072 45.8038944,0.0376992 M29.5145136,11.1662496 C29.5145136,8.8092576 31.3926624,6.8918256 33.7103712,6.8918256 L33.7103712,6.8918256 C36.0207936,6.8918256 37.9063872,8.8092576 37.9063872,11.1662496 L37.9063872,11.1662496 C37.9063872,13.5150048 36.0198432,15.4148544 33.7103712,15.4148544 L33.7103712,15.4148544 C31.3926624,15.4148544 29.5145136,13.5157968 29.5145136,11.1662496" id="Fill-1" fill="url(#linearGradient-3)" mask="url(#mask-2)"></path>
                    </g>
                    <g id="Group-6" transform="translate(23.918400, 24.039893)">
                        <mask id="mask-5" fill="white">
                            <use xlink:href="#path-4"></use>
                        </mask>
                        <g id="Clip-5"></g>
                        <path d="M47.5062192,0.0193248 L47.5062192,9.9494208 C47.5062192,17.6482944 40.9790304,24.1279632 33.5361312,24.1279632 L33.5361312,24.1279632 L11.1998304,24.1279632 C5.081472,24.1279632 0.0188496,29.3640336 0.0188496,35.4915792 L0.0188496,35.4915792 L0.0188496,56.7854496 C0.0188496,62.8463088 5.2883424,66.4109424 11.1998304,68.1490656 L11.1998304,68.1490656 C18.2784096,70.2309168 25.0664832,70.6069584 33.5361312,68.1490656 L33.5361312,68.1490656 C39.165984,66.519288 44.7172704,63.2383488 44.7172704,56.7854496 L44.7172704,56.7854496 L44.7172704,48.2632128 L22.3809696,48.2632128 L22.3809696,45.4226256 L55.8984096,45.4226256 C62.3978784,45.4226256 64.8190224,40.8887424 67.0793904,34.0846704 L67.0793904,34.0846704 C68.2308,30.6312336 68.7902688,27.243216 68.7937536,23.618232 L68.7937536,23.618232 L68.7937536,23.5456848 C68.7897936,19.838808 68.2057728,15.88356 67.0793904,11.3571216 L67.0793904,11.3571216 C65.473056,4.8877488 62.4053232,0.0193248 55.8984096,0.0193248 L55.8984096,0.0193248 L47.5062192,0.0193248 Z M30.747024,58.1933088 C30.747024,55.8445536 32.6337264,53.944704 34.9431984,53.944704 L34.9431984,53.944704 C37.2609072,53.944704 39.1392144,55.8437616 39.1392144,58.1933088 L39.1392144,58.1933088 C39.1392144,60.5503008 37.2609072,62.4677328 34.9431984,62.4677328 L34.9431984,62.4677328 C32.6329344,62.4677328 30.747024,60.5503008 30.747024,58.1933088 L30.747024,58.1933088 Z" id="Fill-4" fill="url(#linearGradient-6)" mask="url(#mask-5)"></path>
                    </g>
                </g>
            </g>
        </g>
    </g>
</svg>